<svg width="660" height="156" viewBox="0 0 660 156" fill="none" xmlns="http://www.w3.org/2000/svg">
<path d="M659.477 85.6404C660.018 81.923 660.139 78.1241 659.841 74.3487C659.841 74.3203 659.837 74.3092 659.837 74.2809L659.831 74.25L653.199 74.773C652.931 71.4305 652.29 68.2138 651.327 65.1426L657.671 63.1432C656.538 59.5417 654.995 56.0635 653.08 52.8012L647.345 56.1671C645.673 53.3241 643.698 50.6921 641.461 48.3166L646.307 43.7579C643.721 41.0099 640.827 38.5468 637.699 36.4389L633.982 41.9571C631.273 40.1293 628.356 38.5986 625.277 37.4121L627.675 31.2093C624.15 29.8464 620.467 28.8844 616.725 28.3466L615.78 34.9268C612.618 34.4741 609.359 34.3545 606.041 34.6221C606.015 34.6221 605.992 34.6271 605.965 34.6295L605.432 28C601.658 28.3059 597.925 29.0299 594.34 30.1572L596.331 36.5006C593.163 37.496 590.155 38.8379 587.359 40.4759L583.995 34.7393C580.744 36.6437 577.699 38.9205 574.946 41.5082L579.5 46.3567C577.107 48.6064 574.971 51.1151 573.135 53.8348L567.623 50.1124C565.508 53.2464 563.748 56.6161 562.386 60.1349L568.588 62.5302C567.416 65.5582 566.574 68.7454 566.1 72.0324L559.516 71.0826C558.982 74.7791 558.861 78.5607 559.16 82.3164L559.163 82.3621L565.793 81.8403C566.062 85.1816 566.698 88.4045 567.656 91.4781L561.312 93.4639C562.44 97.0679 563.981 100.549 565.89 103.813L571.629 100.454C573.297 103.299 575.274 105.934 577.505 108.316L572.655 112.865C575.236 115.614 578.127 118.081 581.254 120.193L584.978 114.678C587.682 116.506 590.598 118.041 593.675 119.232L591.267 125.43C594.794 126.8 598.478 127.768 602.219 128.309L603.171 121.728C606.346 122.186 609.623 122.302 612.957 122.038C612.967 122.042 612.974 122.038 612.983 122.038L613.512 128.668C617.286 128.368 621.018 127.644 624.605 126.526L622.622 120.178C625.792 119.185 628.797 117.848 631.6 116.213L634.953 121.953C638.211 120.054 641.256 117.774 644.014 115.195L639.462 110.338C641.859 108.099 643.995 105.589 645.834 102.871L651.345 106.597C653.463 103.47 655.23 100.096 656.593 96.5843L650.397 94.1768C651.571 91.1513 652.419 87.9691 652.894 84.6821L659.477 85.6404ZM611.845 107.959C595.484 109.249 581.172 97.0358 579.877 80.6748C578.583 64.315 590.798 50.0001 607.155 48.7075C623.518 47.4162 637.829 59.6244 639.125 75.9879C640.42 92.3489 628.206 106.663 611.845 107.959Z" fill="#101010"/>
<path d="M607.873 57.7557C596.508 58.6537 588.022 68.5924 588.924 79.9581C589.823 91.3239 599.764 99.8085 611.128 98.9106C622.497 98.0089 630.98 88.0702 630.079 76.7044C629.181 65.3399 619.238 56.8541 607.873 57.7557ZM610.045 85.2038C606.249 85.5047 602.929 82.6692 602.629 78.8777C602.329 75.0801 605.162 71.761 608.956 71.4613C612.752 71.1616 616.071 73.9934 616.372 77.7861C616.673 81.5825 613.839 84.9016 610.045 85.2038Z" fill="#101010"/>
<path d="M10.624 124V34.4H54.4C65.664 34.4 74.112 36.5333 79.744 40.8C85.4613 45.0667 88.32 50.6987 88.32 57.696C88.32 62.3893 87.168 66.4853 84.864 69.984C82.56 73.3973 79.4027 76.0427 75.392 77.92C71.3813 79.7973 66.7733 80.736 61.568 80.736L64 75.488C69.632 75.488 74.624 76.4267 78.976 78.304C83.328 80.096 86.6987 82.784 89.088 86.368C91.5627 89.952 92.8 94.3467 92.8 99.552C92.8 107.232 89.7707 113.248 83.712 117.6C77.6533 121.867 68.736 124 56.96 124H10.624ZM31.232 108.384H55.424C60.8 108.384 64.8533 107.531 67.584 105.824C70.4 104.032 71.808 101.216 71.808 97.376C71.808 93.6213 70.4 90.848 67.584 89.056C64.8533 87.1787 60.8 86.24 55.424 86.24H29.696V71.136H51.84C56.8747 71.136 60.7147 70.2827 63.36 68.576C66.0907 66.784 67.456 64.096 67.456 60.512C67.456 57.0133 66.0907 54.4107 63.36 52.704C60.7147 50.912 56.8747 50.016 51.84 50.016H31.232V108.384ZM141.267 125.024C133.416 125.024 126.504 123.488 120.531 120.416C114.643 117.344 110.078 113.163 106.835 107.872C103.592 102.496 101.971 96.3947 101.971 89.568C101.971 82.656 103.55 76.5547 106.707 71.264C109.95 65.888 114.344 61.7067 119.891 58.72C125.438 55.648 131.71 54.112 138.707 54.112C145.448 54.112 151.507 55.5627 156.883 58.464C162.344 61.28 166.654 65.376 169.811 70.752C172.968 76.0427 174.547 82.4 174.547 89.824C174.547 90.592 174.504 91.488 174.419 92.512C174.334 93.4507 174.248 94.3467 174.163 95.2H118.227V83.552H163.667L155.987 87.008C155.987 83.424 155.262 80.3093 153.811 77.664C152.36 75.0187 150.355 72.9707 147.795 71.52C145.235 69.984 142.248 69.216 138.835 69.216C135.422 69.216 132.392 69.984 129.747 71.52C127.187 72.9707 125.182 75.0613 123.731 77.792C122.28 80.4373 121.555 83.5947 121.555 87.264V90.336C121.555 94.0907 122.366 97.4187 123.987 100.32C125.694 103.136 128.04 105.312 131.027 106.848C134.099 108.299 137.683 109.024 141.779 109.024C145.448 109.024 148.648 108.469 151.379 107.36C154.195 106.251 156.755 104.587 159.059 102.368L169.683 113.888C166.526 117.472 162.558 120.245 157.779 122.208C153 124.085 147.496 125.024 141.267 125.024ZM229.697 54.112C235.158 54.112 240.022 55.2213 244.289 57.44C248.641 59.5733 252.054 62.9013 254.529 67.424C257.004 71.8613 258.241 77.5787 258.241 84.576V124H238.273V87.648C238.273 82.1013 237.036 78.0053 234.561 75.36C232.172 72.7147 228.758 71.392 224.321 71.392C221.164 71.392 218.305 72.0747 215.745 73.44C213.27 74.72 211.308 76.7253 209.857 79.456C208.492 82.1867 207.809 85.6853 207.809 89.952V124H187.841V55.136H206.913V74.208L203.329 68.448C205.804 63.84 209.345 60.2987 213.953 57.824C218.561 55.3493 223.809 54.112 229.697 54.112ZM309.225 149.856C302.74 149.856 296.468 149.045 290.409 147.424C284.436 145.888 279.444 143.541 275.433 140.384L283.369 126.048C286.27 128.437 289.94 130.315 294.377 131.68C298.9 133.131 303.337 133.856 307.689 133.856C314.772 133.856 319.892 132.277 323.049 129.12C326.292 125.963 327.913 121.269 327.913 115.04V104.672L329.193 87.392L328.937 69.984V55.136H347.881V112.48C347.881 125.28 344.553 134.709 337.897 140.768C331.241 146.827 321.684 149.856 309.225 149.856ZM306.153 120.672C299.753 120.672 293.95 119.307 288.745 116.576C283.625 113.76 279.486 109.877 276.329 104.928C273.257 99.8933 271.721 94.048 271.721 87.392C271.721 80.6507 273.257 74.8053 276.329 69.856C279.486 64.8213 283.625 60.9387 288.745 58.208C293.95 55.4773 299.753 54.112 306.153 54.112C311.956 54.112 317.076 55.3067 321.513 57.696C325.95 60 329.406 63.6267 331.881 68.576C334.356 73.44 335.593 79.712 335.593 87.392C335.593 94.9867 334.356 101.259 331.881 106.208C329.406 111.072 325.95 114.699 321.513 117.088C317.076 119.477 311.956 120.672 306.153 120.672ZM310.121 104.288C313.62 104.288 316.734 103.605 319.465 102.24C322.196 100.789 324.329 98.784 325.865 96.224C327.401 93.664 328.169 90.72 328.169 87.392C328.169 83.9787 327.401 81.0347 325.865 78.56C324.329 76 322.196 74.0373 319.465 72.672C316.734 71.2213 313.62 70.496 310.121 70.496C306.622 70.496 303.508 71.2213 300.777 72.672C298.046 74.0373 295.87 76 294.249 78.56C292.713 81.0347 291.945 83.9787 291.945 87.392C291.945 90.72 292.713 93.664 294.249 96.224C295.87 98.784 298.046 100.789 300.777 102.24C303.508 103.605 306.622 104.288 310.121 104.288ZM382.978 109.92L383.49 85.6L415.618 55.136H439.426L408.578 86.496L398.21 94.944L382.978 109.92ZM366.466 124V29.024H386.434V124H366.466ZM417.794 124L394.498 95.072L407.042 79.584L441.986 124H417.794ZM482.267 125.024C474.416 125.024 467.504 123.488 461.531 120.416C455.643 117.344 451.078 113.163 447.835 107.872C444.592 102.496 442.971 96.3947 442.971 89.568C442.971 82.656 444.55 76.5547 447.707 71.264C450.95 65.888 455.344 61.7067 460.891 58.72C466.438 55.648 472.71 54.112 479.707 54.112C486.448 54.112 492.507 55.5627 497.883 58.464C503.344 61.28 507.654 65.376 510.811 70.752C513.968 76.0427 515.547 82.4 515.547 89.824C515.547 90.592 515.504 91.488 515.419 92.512C515.334 93.4507 515.248 94.3467 515.163 95.2H459.227V83.552H504.667L496.987 87.008C496.987 83.424 496.262 80.3093 494.811 77.664C493.36 75.0187 491.355 72.9707 488.795 71.52C486.235 69.984 483.248 69.216 479.835 69.216C476.422 69.216 473.392 69.984 470.747 71.52C468.187 72.9707 466.182 75.0613 464.731 77.792C463.28 80.4373 462.555 83.5947 462.555 87.264V90.336C462.555 94.0907 463.366 97.4187 464.987 100.32C466.694 103.136 469.04 105.312 472.027 106.848C475.099 108.299 478.683 109.024 482.779 109.024C486.448 109.024 489.648 108.469 492.379 107.36C495.195 106.251 497.755 104.587 500.059 102.368L510.683 113.888C507.526 117.472 503.558 120.245 498.779 122.208C494 124.085 488.496 125.024 482.267 125.024ZM528.841 124V29.024H548.809V124H528.841Z" fill="black"/>
</svg>
