<svg width="1473" height="445" viewBox="0 0 1473 445" fill="none" xmlns="http://www.w3.org/2000/svg">
<rect width="1473" height="445" fill="#2B2A4C"/>
<path d="M901.738 192.82C902.009 190.961 902.07 189.062 901.92 187.174C901.92 187.16 901.918 187.155 901.918 187.14L901.915 187.125L898.599 187.386C898.466 185.715 898.145 184.107 897.663 182.571L900.836 181.572C900.269 179.771 899.497 178.032 898.54 176.401L895.673 178.084C894.836 176.662 893.849 175.346 892.73 174.158L895.153 171.879C893.861 170.505 892.413 169.273 890.849 168.219L888.991 170.979C887.636 170.065 886.178 169.299 884.639 168.706L885.837 165.605C884.075 164.923 882.233 164.442 880.362 164.173L879.89 167.463C878.309 167.237 876.679 167.177 875.021 167.311C875.008 167.311 874.996 167.314 874.982 167.315L874.716 164C872.829 164.153 870.963 164.515 869.17 165.079L870.165 168.25C868.582 168.748 867.077 169.419 865.679 170.238L863.998 167.37C862.372 168.322 860.849 169.46 859.473 170.754L861.75 173.178C860.553 174.303 859.485 175.558 858.568 176.917L855.812 175.056C854.754 176.623 853.874 178.308 853.193 180.067L856.294 181.265C855.708 182.779 855.287 184.373 855.05 186.016L851.758 185.541C851.491 187.39 851.431 189.28 851.58 191.158L851.582 191.181L854.896 190.92C855.031 192.591 855.349 194.202 855.828 195.739L852.656 196.732C853.22 198.534 853.99 200.274 854.945 201.907L857.815 200.227C858.648 201.649 859.637 202.967 860.753 204.158L858.328 206.433C859.618 207.807 861.063 209.041 862.627 210.096L864.489 207.339C865.841 208.253 867.299 209.02 868.838 209.616L867.634 212.715C869.397 213.4 871.239 213.884 873.109 214.154L873.585 210.864C875.173 211.093 876.811 211.151 878.478 211.019C878.483 211.021 878.487 211.019 878.491 211.019L878.756 214.334C880.643 214.184 882.509 213.822 884.302 213.263L883.311 210.089C884.896 209.593 886.399 208.924 887.8 208.106L889.477 210.976C891.105 210.027 892.628 208.887 894.007 207.598L891.731 205.169C892.929 204.05 893.998 202.795 894.917 201.436L897.673 203.299C898.731 201.735 899.615 200.048 900.297 198.292L897.198 197.088C897.785 195.576 898.21 193.985 898.447 192.341L901.738 192.82ZM877.923 203.979C869.742 204.624 862.586 198.518 861.939 190.337C861.292 182.157 867.399 175 875.577 174.354C883.759 173.708 890.915 179.812 891.562 187.994C892.21 196.174 886.103 203.331 877.923 203.979Z" fill="#EEE2DE"/>
<path d="M875.936 178.878C870.254 179.327 866.011 184.296 866.462 189.979C866.912 195.662 871.882 199.904 877.564 199.455C883.249 199.004 887.49 194.035 887.039 188.352C886.59 182.67 881.619 178.427 875.936 178.878ZM877.022 192.602C875.125 192.752 873.465 191.335 873.315 189.439C873.164 187.54 874.581 185.88 876.478 185.731C878.376 185.581 880.036 186.997 880.186 188.893C880.337 190.791 878.919 192.451 877.022 192.602Z" fill="#EEE2DE"/>
<path d="M577.312 212V167.2H599.2C604.832 167.2 609.056 168.267 611.872 170.4C614.731 172.533 616.16 175.349 616.16 178.848C616.16 181.195 615.584 183.243 614.432 184.992C613.28 186.699 611.701 188.021 609.696 188.96C607.691 189.899 605.387 190.368 602.784 190.368L604 187.744C606.816 187.744 609.312 188.213 611.488 189.152C613.664 190.048 615.349 191.392 616.544 193.184C617.781 194.976 618.4 197.173 618.4 199.776C618.4 203.616 616.885 206.624 613.856 208.8C610.827 210.933 606.368 212 600.48 212H577.312ZM587.616 204.192H599.712C602.4 204.192 604.427 203.765 605.792 202.912C607.2 202.016 607.904 200.608 607.904 198.688C607.904 196.811 607.2 195.424 605.792 194.528C604.427 193.589 602.4 193.12 599.712 193.12H586.848V185.568H597.92C600.437 185.568 602.357 185.141 603.68 184.288C605.045 183.392 605.728 182.048 605.728 180.256C605.728 178.507 605.045 177.205 603.68 176.352C602.357 175.456 600.437 175.008 597.92 175.008H587.616V204.192ZM642.634 212.512C638.708 212.512 635.252 211.744 632.266 210.208C629.322 208.672 627.039 206.581 625.418 203.936C623.796 201.248 622.986 198.197 622.986 194.784C622.986 191.328 623.775 188.277 625.354 185.632C626.975 182.944 629.172 180.853 631.946 179.36C634.719 177.824 637.855 177.056 641.354 177.056C644.724 177.056 647.754 177.781 650.442 179.232C653.172 180.64 655.327 182.688 656.906 185.376C658.484 188.021 659.274 191.2 659.274 194.912C659.274 195.296 659.252 195.744 659.21 196.256C659.167 196.725 659.124 197.173 659.082 197.6H631.114V191.776H653.833L649.994 193.504C649.994 191.712 649.631 190.155 648.906 188.832C648.18 187.509 647.178 186.485 645.898 185.76C644.618 184.992 643.124 184.608 641.418 184.608C639.711 184.608 638.196 184.992 636.874 185.76C635.594 186.485 634.591 187.531 633.866 188.896C633.14 190.219 632.778 191.797 632.778 193.632V195.168C632.778 197.045 633.183 198.709 633.994 200.16C634.847 201.568 636.02 202.656 637.514 203.424C639.05 204.149 640.842 204.512 642.89 204.512C644.724 204.512 646.324 204.235 647.69 203.68C649.098 203.125 650.378 202.293 651.53 201.184L656.842 206.944C655.263 208.736 653.279 210.123 650.89 211.104C648.5 212.043 645.748 212.512 642.634 212.512ZM686.849 177.056C689.579 177.056 692.011 177.611 694.145 178.72C696.321 179.787 698.027 181.451 699.265 183.712C700.502 185.931 701.121 188.789 701.121 192.288V212H691.137V193.824C691.137 191.051 690.518 189.003 689.281 187.68C688.086 186.357 686.379 185.696 684.161 185.696C682.582 185.696 681.153 186.037 679.873 186.72C678.635 187.36 677.654 188.363 676.929 189.728C676.246 191.093 675.905 192.843 675.905 194.976V212H665.921V177.568H675.457V187.104L673.665 184.224C674.902 181.92 676.673 180.149 678.977 178.912C681.281 177.675 683.905 177.056 686.849 177.056ZM726.613 224.928C723.37 224.928 720.234 224.523 717.205 223.712C714.218 222.944 711.722 221.771 709.717 220.192L713.685 213.024C715.135 214.219 716.97 215.157 719.189 215.84C721.45 216.565 723.669 216.928 725.845 216.928C729.386 216.928 731.946 216.139 733.525 214.56C735.146 212.981 735.957 210.635 735.957 207.52V202.336L736.597 193.696L736.469 184.992V177.568H745.941V206.24C745.941 212.64 744.277 217.355 740.949 220.384C737.621 223.413 732.842 224.928 726.613 224.928ZM725.077 210.336C721.877 210.336 718.975 209.653 716.373 208.288C713.813 206.88 711.743 204.939 710.165 202.464C708.629 199.947 707.861 197.024 707.861 193.696C707.861 190.325 708.629 187.403 710.165 184.928C711.743 182.411 713.813 180.469 716.373 179.104C718.975 177.739 721.877 177.056 725.077 177.056C727.978 177.056 730.538 177.653 732.757 178.848C734.975 180 736.703 181.813 737.941 184.288C739.178 186.72 739.797 189.856 739.797 193.696C739.797 197.493 739.178 200.629 737.941 203.104C736.703 205.536 734.975 207.349 732.757 208.544C730.538 209.739 727.978 210.336 725.077 210.336ZM727.061 202.144C728.81 202.144 730.367 201.803 731.733 201.12C733.098 200.395 734.165 199.392 734.933 198.112C735.701 196.832 736.085 195.36 736.085 193.696C736.085 191.989 735.701 190.517 734.933 189.28C734.165 188 733.098 187.019 731.733 186.336C730.367 185.611 728.81 185.248 727.061 185.248C725.311 185.248 723.754 185.611 722.389 186.336C721.023 187.019 719.935 188 719.125 189.28C718.357 190.517 717.973 191.989 717.973 193.696C717.973 195.36 718.357 196.832 719.125 198.112C719.935 199.392 721.023 200.395 722.389 201.12C723.754 201.803 725.311 202.144 727.061 202.144ZM763.489 204.96L763.745 192.8L779.809 177.568H791.713L776.289 193.248L771.105 197.472L763.489 204.96ZM755.233 212V164.512H765.217V212H755.233ZM780.897 212L769.249 197.536L775.521 189.792L792.993 212H780.897ZM813.134 212.512C809.208 212.512 805.752 211.744 802.766 210.208C799.822 208.672 797.539 206.581 795.918 203.936C794.296 201.248 793.486 198.197 793.486 194.784C793.486 191.328 794.275 188.277 795.854 185.632C797.475 182.944 799.672 180.853 802.446 179.36C805.219 177.824 808.355 177.056 811.854 177.056C815.224 177.056 818.254 177.781 820.942 179.232C823.672 180.64 825.827 182.688 827.406 185.376C828.984 188.021 829.774 191.2 829.774 194.912C829.774 195.296 829.752 195.744 829.71 196.256C829.667 196.725 829.624 197.173 829.582 197.6H801.614V191.776H824.333L820.494 193.504C820.494 191.712 820.131 190.155 819.406 188.832C818.68 187.509 817.678 186.485 816.398 185.76C815.118 184.992 813.624 184.608 811.918 184.608C810.211 184.608 808.696 184.992 807.374 185.76C806.094 186.485 805.091 187.531 804.366 188.896C803.64 190.219 803.278 191.797 803.278 193.632V195.168C803.278 197.045 803.683 198.709 804.494 200.16C805.347 201.568 806.52 202.656 808.014 203.424C809.55 204.149 811.342 204.512 813.39 204.512C815.224 204.512 816.824 204.235 818.19 203.68C819.598 203.125 820.878 202.293 822.03 201.184L827.342 206.944C825.763 208.736 823.779 210.123 821.39 211.104C819 212.043 816.248 212.512 813.134 212.512ZM836.421 212V164.512H846.405V212H836.421Z" fill="#EEE2DE"/>
<path d="M323.104 290.192C321.824 290.192 320.632 289.976 319.528 289.544C318.44 289.112 317.496 288.512 316.696 287.744C315.896 286.96 315.272 286.048 314.824 285.008C314.376 283.968 314.152 282.832 314.152 281.6C314.152 280.368 314.376 279.232 314.824 278.192C315.272 277.152 315.896 276.248 316.696 275.48C317.496 274.696 318.44 274.088 319.528 273.656C320.616 273.224 321.808 273.008 323.104 273.008C324.384 273.008 325.56 273.224 326.632 273.656C327.72 274.072 328.664 274.672 329.464 275.456C330.28 276.224 330.904 277.128 331.336 278.168C331.784 279.208 332.008 280.352 332.008 281.6C332.008 282.848 331.784 283.992 331.336 285.032C330.904 286.072 330.28 286.984 329.464 287.768C328.664 288.536 327.72 289.136 326.632 289.568C325.56 289.984 324.384 290.192 323.104 290.192ZM323.104 288.056C324.032 288.056 324.888 287.896 325.672 287.576C326.472 287.256 327.16 286.808 327.736 286.232C328.328 285.64 328.784 284.952 329.104 284.168C329.44 283.384 329.608 282.528 329.608 281.6C329.608 280.672 329.44 279.816 329.104 279.032C328.784 278.248 328.328 277.568 327.736 276.992C327.16 276.4 326.472 275.944 325.672 275.624C324.888 275.304 324.032 275.144 323.104 275.144C322.16 275.144 321.288 275.304 320.488 275.624C319.704 275.944 319.016 276.4 318.424 276.992C317.832 277.568 317.368 278.248 317.032 279.032C316.712 279.816 316.552 280.672 316.552 281.6C316.552 282.528 316.712 283.384 317.032 284.168C317.368 284.952 317.832 285.64 318.424 286.232C319.016 286.808 319.704 287.256 320.488 287.576C321.288 287.896 322.16 288.056 323.104 288.056ZM335.34 290V277.28H337.548V280.736L337.332 279.872C337.684 278.992 338.276 278.32 339.108 277.856C339.94 277.392 340.964 277.16 342.18 277.16V279.392C342.084 279.376 341.988 279.368 341.892 279.368C341.812 279.368 341.732 279.368 341.652 279.368C340.42 279.368 339.444 279.736 338.724 280.472C338.004 281.208 337.644 282.272 337.644 283.664V290H335.34ZM350.159 290.144C348.927 290.144 347.823 289.872 346.847 289.328C345.887 288.784 345.127 288.024 344.567 287.048C344.007 286.072 343.727 284.936 343.727 283.64C343.727 282.344 344.007 281.216 344.567 280.256C345.127 279.28 345.887 278.52 346.847 277.976C347.823 277.432 348.927 277.16 350.159 277.16C351.231 277.16 352.199 277.4 353.063 277.88C353.927 278.36 354.615 279.08 355.127 280.04C355.655 281 355.919 282.2 355.919 283.64C355.919 285.08 355.663 286.28 355.151 287.24C354.655 288.2 353.975 288.928 353.111 289.424C352.247 289.904 351.263 290.144 350.159 290.144ZM350.351 288.128C351.151 288.128 351.871 287.944 352.511 287.576C353.167 287.208 353.679 286.688 354.047 286.016C354.431 285.328 354.623 284.536 354.623 283.64C354.623 282.728 354.431 281.944 354.047 281.288C353.679 280.616 353.167 280.096 352.511 279.728C351.871 279.36 351.151 279.176 350.351 279.176C349.535 279.176 348.807 279.36 348.167 279.728C347.527 280.096 347.015 280.616 346.631 281.288C346.247 281.944 346.055 282.728 346.055 283.64C346.055 284.536 346.247 285.328 346.631 286.016C347.015 286.688 347.527 287.208 348.167 287.576C348.807 287.944 349.535 288.128 350.351 288.128ZM354.695 290V286.568L354.839 283.616L354.599 280.664V272.192H356.903V290H354.695ZM366.926 290.144C365.566 290.144 364.366 289.864 363.326 289.304C362.302 288.744 361.502 287.976 360.926 287C360.366 286.024 360.086 284.904 360.086 283.64C360.086 282.376 360.358 281.256 360.902 280.28C361.462 279.304 362.222 278.544 363.182 278C364.158 277.44 365.254 277.16 366.47 277.16C367.702 277.16 368.79 277.432 369.734 277.976C370.678 278.52 371.414 279.288 371.942 280.28C372.486 281.256 372.758 282.4 372.758 283.712C372.758 283.808 372.75 283.92 372.734 284.048C372.734 284.176 372.726 284.296 372.71 284.408H361.886V282.752H371.51L370.574 283.328C370.59 282.512 370.422 281.784 370.07 281.144C369.718 280.504 369.23 280.008 368.606 279.656C367.998 279.288 367.286 279.104 366.47 279.104C365.67 279.104 364.958 279.288 364.334 279.656C363.71 280.008 363.222 280.512 362.87 281.168C362.518 281.808 362.342 282.544 362.342 283.376V283.76C362.342 284.608 362.534 285.368 362.918 286.04C363.318 286.696 363.87 287.208 364.574 287.576C365.278 287.944 366.086 288.128 366.998 288.128C367.75 288.128 368.43 288 369.038 287.744C369.662 287.488 370.206 287.104 370.67 286.592L371.942 288.08C371.366 288.752 370.646 289.264 369.782 289.616C368.934 289.968 367.982 290.144 366.926 290.144ZM375.957 290V277.28H378.165V280.736L377.949 279.872C378.301 278.992 378.893 278.32 379.725 277.856C380.557 277.392 381.581 277.16 382.797 277.16V279.392C382.701 279.376 382.605 279.368 382.509 279.368C382.429 279.368 382.349 279.368 382.269 279.368C381.037 279.368 380.061 279.736 379.341 280.472C378.621 281.208 378.261 282.272 378.261 283.664V290H375.957ZM392.799 294.8C392.191 294.8 391.599 294.696 391.023 294.488C390.447 294.296 389.95 294.008 389.534 293.624L390.519 291.896C390.839 292.2 391.191 292.432 391.575 292.592C391.959 292.752 392.367 292.832 392.799 292.832C393.359 292.832 393.823 292.688 394.191 292.4C394.559 292.112 394.903 291.6 395.223 290.864L396.015 289.112L396.255 288.824L401.247 277.28H403.503L397.335 291.272C396.967 292.168 396.551 292.872 396.087 293.384C395.639 293.896 395.143 294.256 394.599 294.464C394.055 294.688 393.455 294.8 392.799 294.8ZM395.823 290.408L390.014 277.28H392.415L397.359 288.608L395.823 290.408ZM410.749 290.144C409.469 290.144 408.333 289.864 407.341 289.304C406.349 288.744 405.565 287.976 404.989 287C404.413 286.008 404.125 284.888 404.125 283.64C404.125 282.376 404.413 281.256 404.989 280.28C405.565 279.304 406.349 278.544 407.341 278C408.333 277.44 409.469 277.16 410.749 277.16C412.013 277.16 413.141 277.44 414.133 278C415.141 278.544 415.925 279.304 416.485 280.28C417.061 281.24 417.349 282.36 417.349 283.64C417.349 284.904 417.061 286.024 416.485 287C415.925 287.976 415.141 288.744 414.133 289.304C413.141 289.864 412.013 290.144 410.749 290.144ZM410.749 288.128C411.565 288.128 412.293 287.944 412.933 287.576C413.589 287.208 414.101 286.688 414.469 286.016C414.837 285.328 415.021 284.536 415.021 283.64C415.021 282.728 414.837 281.944 414.469 281.288C414.101 280.616 413.589 280.096 412.933 279.728C412.293 279.36 411.565 279.176 410.749 279.176C409.933 279.176 409.205 279.36 408.565 279.728C407.925 280.096 407.413 280.616 407.029 281.288C406.645 281.944 406.453 282.728 406.453 283.64C406.453 284.536 406.645 285.328 407.029 286.016C407.413 286.688 407.925 287.208 408.565 287.576C409.205 287.944 409.933 288.128 410.749 288.128ZM425.888 290.144C424.8 290.144 423.84 289.944 423.008 289.544C422.192 289.144 421.552 288.536 421.088 287.72C420.64 286.888 420.416 285.848 420.416 284.6V277.28H422.72V284.336C422.72 285.584 423.016 286.52 423.608 287.144C424.216 287.768 425.064 288.08 426.152 288.08C426.952 288.08 427.648 287.92 428.24 287.6C428.832 287.264 429.288 286.784 429.608 286.16C429.928 285.52 430.088 284.752 430.088 283.856V277.28H432.392V290H430.208V286.568L430.568 287.48C430.152 288.328 429.528 288.984 428.696 289.448C427.864 289.912 426.928 290.144 425.888 290.144ZM436.778 290V277.28H438.986V280.736L438.77 279.872C439.122 278.992 439.714 278.32 440.546 277.856C441.378 277.392 442.402 277.16 443.618 277.16V279.392C443.522 279.376 443.426 279.368 443.33 279.368C443.25 279.368 443.17 279.368 443.09 279.368C441.858 279.368 440.882 279.736 440.162 280.472C439.442 281.208 439.082 282.272 439.082 283.664V290H436.778ZM453.403 290V276.152C453.403 274.904 453.763 273.912 454.483 273.176C455.219 272.424 456.259 272.048 457.603 272.048C458.099 272.048 458.571 272.112 459.019 272.24C459.483 272.352 459.875 272.536 460.195 272.792L459.499 274.544C459.259 274.352 458.987 274.208 458.683 274.112C458.379 274 458.059 273.944 457.723 273.944C457.051 273.944 456.539 274.136 456.187 274.52C455.835 274.888 455.659 275.44 455.659 276.176V277.88L455.707 278.936V290H453.403ZM451.243 279.176V277.28H459.355V279.176H451.243ZM469.189 290V287.312L469.069 286.808V282.224C469.069 281.248 468.781 280.496 468.205 279.968C467.645 279.424 466.797 279.152 465.661 279.152C464.909 279.152 464.173 279.28 463.453 279.536C462.733 279.776 462.125 280.104 461.629 280.52L460.669 278.792C461.325 278.264 462.109 277.864 463.021 277.592C463.949 277.304 464.917 277.16 465.925 277.16C467.669 277.16 469.013 277.584 469.957 278.432C470.901 279.28 471.373 280.576 471.373 282.32V290H469.189ZM465.013 290.144C464.069 290.144 463.237 289.984 462.517 289.664C461.813 289.344 461.269 288.904 460.885 288.344C460.501 287.768 460.309 287.12 460.309 286.4C460.309 285.712 460.469 285.088 460.789 284.528C461.125 283.968 461.661 283.52 462.397 283.184C463.149 282.848 464.157 282.68 465.421 282.68H469.453V284.336H465.517C464.365 284.336 463.589 284.528 463.189 284.912C462.789 285.296 462.589 285.76 462.589 286.304C462.589 286.928 462.837 287.432 463.333 287.816C463.829 288.184 464.517 288.368 465.397 288.368C466.261 288.368 467.013 288.176 467.653 287.792C468.309 287.408 468.781 286.848 469.069 286.112L469.525 287.696C469.221 288.448 468.685 289.048 467.917 289.496C467.149 289.928 466.181 290.144 465.013 290.144ZM478.739 290L473.171 277.28H475.571L480.515 288.8H479.363L484.403 277.28H486.659L481.091 290H478.739ZM493.905 290.144C492.625 290.144 491.489 289.864 490.497 289.304C489.505 288.744 488.721 287.976 488.145 287C487.569 286.008 487.281 284.888 487.281 283.64C487.281 282.376 487.569 281.256 488.145 280.28C488.721 279.304 489.505 278.544 490.497 278C491.489 277.44 492.625 277.16 493.905 277.16C495.169 277.16 496.297 277.44 497.289 278C498.297 278.544 499.081 279.304 499.641 280.28C500.217 281.24 500.505 282.36 500.505 283.64C500.505 284.904 500.217 286.024 499.641 287C499.081 287.976 498.297 288.744 497.289 289.304C496.297 289.864 495.169 290.144 493.905 290.144ZM493.905 288.128C494.721 288.128 495.449 287.944 496.089 287.576C496.745 287.208 497.257 286.688 497.625 286.016C497.993 285.328 498.177 284.536 498.177 283.64C498.177 282.728 497.993 281.944 497.625 281.288C497.257 280.616 496.745 280.096 496.089 279.728C495.449 279.36 494.721 279.176 493.905 279.176C493.089 279.176 492.361 279.36 491.721 279.728C491.081 280.096 490.569 280.616 490.185 281.288C489.801 281.944 489.609 282.728 489.609 283.64C489.609 284.536 489.801 285.328 490.185 286.016C490.569 286.688 491.081 287.208 491.721 287.576C492.361 287.944 493.089 288.128 493.905 288.128ZM503.692 290V277.28H505.9V280.736L505.684 279.872C506.036 278.992 506.628 278.32 507.46 277.856C508.292 277.392 509.316 277.16 510.532 277.16V279.392C510.436 279.376 510.34 279.368 510.244 279.368C510.164 279.368 510.084 279.368 510.004 279.368C508.772 279.368 507.796 279.736 507.076 280.472C506.356 281.208 505.996 282.272 505.996 283.664V290H503.692ZM513.372 290V277.28H515.676V290H513.372ZM514.524 274.832C514.076 274.832 513.7 274.688 513.396 274.4C513.108 274.112 512.964 273.76 512.964 273.344C512.964 272.912 513.108 272.552 513.396 272.264C513.7 271.976 514.076 271.832 514.524 271.832C514.972 271.832 515.34 271.976 515.628 272.264C515.932 272.536 516.084 272.88 516.084 273.296C516.084 273.728 515.94 274.096 515.652 274.4C515.364 274.688 514.988 274.832 514.524 274.832ZM524.443 290.144C523.163 290.144 522.171 289.8 521.467 289.112C520.763 288.424 520.411 287.44 520.411 286.16V274.496H522.715V286.064C522.715 286.752 522.883 287.28 523.219 287.648C523.571 288.016 524.067 288.2 524.707 288.2C525.427 288.2 526.027 288 526.507 287.6L527.227 289.256C526.875 289.56 526.451 289.784 525.955 289.928C525.475 290.072 524.971 290.144 524.443 290.144ZM518.251 279.176V277.28H526.363V279.176H518.251ZM535.254 290.144C533.894 290.144 532.694 289.864 531.654 289.304C530.63 288.744 529.83 287.976 529.254 287C528.694 286.024 528.414 284.904 528.414 283.64C528.414 282.376 528.686 281.256 529.23 280.28C529.79 279.304 530.55 278.544 531.51 278C532.486 277.44 533.582 277.16 534.798 277.16C536.03 277.16 537.118 277.432 538.062 277.976C539.006 278.52 539.742 279.288 540.27 280.28C540.814 281.256 541.086 282.4 541.086 283.712C541.086 283.808 541.078 283.92 541.062 284.048C541.062 284.176 541.054 284.296 541.038 284.408H530.214V282.752H539.838L538.902 283.328C538.918 282.512 538.75 281.784 538.398 281.144C538.046 280.504 537.558 280.008 536.934 279.656C536.326 279.288 535.614 279.104 534.798 279.104C533.998 279.104 533.286 279.288 532.662 279.656C532.038 280.008 531.55 280.512 531.198 281.168C530.846 281.808 530.67 282.544 530.67 283.376V283.76C530.67 284.608 530.862 285.368 531.246 286.04C531.646 286.696 532.198 287.208 532.902 287.576C533.606 287.944 534.414 288.128 535.326 288.128C536.078 288.128 536.758 288 537.366 287.744C537.99 287.488 538.534 287.104 538.998 286.592L540.27 288.08C539.694 288.752 538.974 289.264 538.11 289.616C537.262 289.968 536.31 290.144 535.254 290.144ZM556.299 294.8C555.131 294.8 553.995 294.632 552.891 294.296C551.803 293.976 550.915 293.512 550.227 292.904L551.331 291.128C551.923 291.64 552.651 292.04 553.515 292.328C554.379 292.632 555.283 292.784 556.227 292.784C557.731 292.784 558.835 292.432 559.539 291.728C560.243 291.024 560.595 289.952 560.595 288.512V285.824L560.835 283.304L560.715 280.76V277.28H562.899V288.272C562.899 290.512 562.339 292.16 561.219 293.216C560.099 294.272 558.459 294.8 556.299 294.8ZM556.011 289.472C554.779 289.472 553.675 289.216 552.699 288.704C551.739 288.176 550.971 287.448 550.395 286.52C549.835 285.592 549.555 284.52 549.555 283.304C549.555 282.072 549.835 281 550.395 280.088C550.971 279.16 551.739 278.44 552.699 277.928C553.675 277.416 554.779 277.16 556.011 277.16C557.099 277.16 558.091 277.384 558.987 277.832C559.883 278.264 560.595 278.936 561.123 279.848C561.667 280.76 561.939 281.912 561.939 283.304C561.939 284.68 561.667 285.824 561.123 286.736C560.595 287.648 559.883 288.336 558.987 288.8C558.091 289.248 557.099 289.472 556.011 289.472ZM556.275 287.456C557.123 287.456 557.875 287.28 558.531 286.928C559.187 286.576 559.699 286.088 560.067 285.464C560.451 284.84 560.643 284.12 560.643 283.304C560.643 282.488 560.451 281.768 560.067 281.144C559.699 280.52 559.187 280.04 558.531 279.704C557.875 279.352 557.123 279.176 556.275 279.176C555.427 279.176 554.667 279.352 553.995 279.704C553.339 280.04 552.819 280.52 552.435 281.144C552.067 281.768 551.883 282.488 551.883 283.304C551.883 284.12 552.067 284.84 552.435 285.464C552.819 286.088 553.339 286.576 553.995 286.928C554.667 287.28 555.427 287.456 556.275 287.456ZM575.197 290V287.312L575.077 286.808V282.224C575.077 281.248 574.789 280.496 574.213 279.968C573.653 279.424 572.805 279.152 571.669 279.152C570.917 279.152 570.181 279.28 569.461 279.536C568.741 279.776 568.133 280.104 567.637 280.52L566.677 278.792C567.333 278.264 568.117 277.864 569.029 277.592C569.957 277.304 570.925 277.16 571.933 277.16C573.677 277.16 575.021 277.584 575.965 278.432C576.909 279.28 577.381 280.576 577.381 282.32V290H575.197ZM571.021 290.144C570.077 290.144 569.245 289.984 568.525 289.664C567.821 289.344 567.277 288.904 566.893 288.344C566.509 287.768 566.317 287.12 566.317 286.4C566.317 285.712 566.477 285.088 566.797 284.528C567.133 283.968 567.669 283.52 568.405 283.184C569.157 282.848 570.165 282.68 571.429 282.68H575.461V284.336H571.525C570.373 284.336 569.597 284.528 569.197 284.912C568.797 285.296 568.597 285.76 568.597 286.304C568.597 286.928 568.845 287.432 569.341 287.816C569.837 288.184 570.525 288.368 571.405 288.368C572.269 288.368 573.021 288.176 573.661 287.792C574.317 287.408 574.789 286.848 575.077 286.112L575.533 287.696C575.229 288.448 574.693 289.048 573.925 289.496C573.157 289.928 572.189 290.144 571.021 290.144ZM581.645 290V277.28H583.853V280.736L583.637 279.872C583.989 278.992 584.581 278.32 585.413 277.856C586.245 277.392 587.269 277.16 588.485 277.16V279.392C588.389 279.376 588.293 279.368 588.197 279.368C588.117 279.368 588.037 279.368 587.957 279.368C586.725 279.368 585.749 279.736 585.029 280.472C584.309 281.208 583.949 282.272 583.949 283.664V290H581.645ZM598.283 290V287.312L598.163 286.808V282.224C598.163 281.248 597.875 280.496 597.299 279.968C596.739 279.424 595.891 279.152 594.755 279.152C594.003 279.152 593.267 279.28 592.547 279.536C591.827 279.776 591.219 280.104 590.723 280.52L589.763 278.792C590.419 278.264 591.203 277.864 592.115 277.592C593.043 277.304 594.011 277.16 595.019 277.16C596.763 277.16 598.107 277.584 599.051 278.432C599.995 279.28 600.467 280.576 600.467 282.32V290H598.283ZM594.107 290.144C593.163 290.144 592.331 289.984 591.611 289.664C590.907 289.344 590.363 288.904 589.979 288.344C589.595 287.768 589.403 287.12 589.403 286.4C589.403 285.712 589.563 285.088 589.883 284.528C590.219 283.968 590.755 283.52 591.491 283.184C592.243 282.848 593.251 282.68 594.515 282.68H598.547V284.336H594.611C593.459 284.336 592.683 284.528 592.283 284.912C591.883 285.296 591.683 285.76 591.683 286.304C591.683 286.928 591.931 287.432 592.427 287.816C592.923 288.184 593.611 288.368 594.491 288.368C595.355 288.368 596.107 288.176 596.747 287.792C597.403 287.408 597.875 286.848 598.163 286.112L598.619 287.696C598.315 288.448 597.779 289.048 597.011 289.496C596.243 289.928 595.275 290.144 594.107 290.144ZM610.299 294.8C609.131 294.8 607.995 294.632 606.891 294.296C605.803 293.976 604.915 293.512 604.227 292.904L605.331 291.128C605.923 291.64 606.651 292.04 607.515 292.328C608.379 292.632 609.283 292.784 610.227 292.784C611.731 292.784 612.835 292.432 613.539 291.728C614.243 291.024 614.595 289.952 614.595 288.512V285.824L614.835 283.304L614.715 280.76V277.28H616.899V288.272C616.899 290.512 616.339 292.16 615.219 293.216C614.099 294.272 612.459 294.8 610.299 294.8ZM610.011 289.472C608.779 289.472 607.675 289.216 606.699 288.704C605.739 288.176 604.971 287.448 604.395 286.52C603.835 285.592 603.555 284.52 603.555 283.304C603.555 282.072 603.835 281 604.395 280.088C604.971 279.16 605.739 278.44 606.699 277.928C607.675 277.416 608.779 277.16 610.011 277.16C611.099 277.16 612.091 277.384 612.987 277.832C613.883 278.264 614.595 278.936 615.123 279.848C615.667 280.76 615.939 281.912 615.939 283.304C615.939 284.68 615.667 285.824 615.123 286.736C614.595 287.648 613.883 288.336 612.987 288.8C612.091 289.248 611.099 289.472 610.011 289.472ZM610.275 287.456C611.123 287.456 611.875 287.28 612.531 286.928C613.187 286.576 613.699 286.088 614.067 285.464C614.451 284.84 614.643 284.12 614.643 283.304C614.643 282.488 614.451 281.768 614.067 281.144C613.699 280.52 613.187 280.04 612.531 279.704C611.875 279.352 611.123 279.176 610.275 279.176C609.427 279.176 608.667 279.352 607.995 279.704C607.339 280.04 606.819 280.52 606.435 281.144C606.067 281.768 605.883 282.488 605.883 283.304C605.883 284.12 606.067 284.84 606.435 285.464C606.819 286.088 607.339 286.576 607.995 286.928C608.667 287.28 609.427 287.456 610.275 287.456ZM626.965 290.144C625.605 290.144 624.405 289.864 623.365 289.304C622.341 288.744 621.541 287.976 620.965 287C620.405 286.024 620.125 284.904 620.125 283.64C620.125 282.376 620.397 281.256 620.941 280.28C621.501 279.304 622.261 278.544 623.221 278C624.197 277.44 625.293 277.16 626.509 277.16C627.741 277.16 628.829 277.432 629.773 277.976C630.717 278.52 631.453 279.288 631.981 280.28C632.525 281.256 632.797 282.4 632.797 283.712C632.797 283.808 632.789 283.92 632.773 284.048C632.773 284.176 632.765 284.296 632.749 284.408H621.925V282.752H631.549L630.613 283.328C630.629 282.512 630.461 281.784 630.109 281.144C629.757 280.504 629.269 280.008 628.645 279.656C628.037 279.288 627.325 279.104 626.509 279.104C625.709 279.104 624.997 279.288 624.373 279.656C623.749 280.008 623.261 280.512 622.909 281.168C622.557 281.808 622.381 282.544 622.381 283.376V283.76C622.381 284.608 622.573 285.368 622.957 286.04C623.357 286.696 623.909 287.208 624.613 287.576C625.317 287.944 626.125 288.128 627.037 288.128C627.789 288.128 628.469 288 629.077 287.744C629.701 287.488 630.245 287.104 630.709 286.592L631.981 288.08C631.405 288.752 630.685 289.264 629.821 289.616C628.973 289.968 628.021 290.144 626.965 290.144ZM649.234 277.16C650.274 277.16 651.186 277.36 651.97 277.76C652.77 278.16 653.394 278.768 653.842 279.584C654.29 280.4 654.514 281.432 654.514 282.68V290H652.21V282.944C652.21 281.712 651.906 280.784 651.298 280.16C650.706 279.536 649.866 279.224 648.778 279.224C647.962 279.224 647.25 279.384 646.642 279.704C646.034 280.024 645.562 280.496 645.226 281.12C644.906 281.744 644.746 282.52 644.746 283.448V290H642.442V272.192H644.746V280.712L644.29 279.8C644.706 278.968 645.346 278.32 646.21 277.856C647.074 277.392 648.082 277.16 649.234 277.16ZM664.442 290.144C663.082 290.144 661.882 289.864 660.842 289.304C659.818 288.744 659.018 287.976 658.442 287C657.882 286.024 657.602 284.904 657.602 283.64C657.602 282.376 657.874 281.256 658.418 280.28C658.978 279.304 659.738 278.544 660.698 278C661.674 277.44 662.77 277.16 663.986 277.16C665.218 277.16 666.306 277.432 667.25 277.976C668.194 278.52 668.93 279.288 669.458 280.28C670.002 281.256 670.274 282.4 670.274 283.712C670.274 283.808 670.266 283.92 670.25 284.048C670.25 284.176 670.242 284.296 670.226 284.408H659.402V282.752H669.026L668.09 283.328C668.106 282.512 667.938 281.784 667.586 281.144C667.234 280.504 666.746 280.008 666.122 279.656C665.514 279.288 664.802 279.104 663.986 279.104C663.186 279.104 662.474 279.288 661.85 279.656C661.226 280.008 660.738 280.512 660.386 281.168C660.034 281.808 659.858 282.544 659.858 283.376V283.76C659.858 284.608 660.05 285.368 660.434 286.04C660.834 286.696 661.386 287.208 662.09 287.576C662.794 287.944 663.602 288.128 664.514 288.128C665.266 288.128 665.946 288 666.554 287.744C667.178 287.488 667.722 287.104 668.186 286.592L669.458 288.08C668.882 288.752 668.162 289.264 667.298 289.616C666.45 289.968 665.498 290.144 664.442 290.144ZM673.473 290V277.28H675.681V280.736L675.465 279.872C675.817 278.992 676.409 278.32 677.241 277.856C678.073 277.392 679.097 277.16 680.313 277.16V279.392C680.217 279.376 680.121 279.368 680.025 279.368C679.945 279.368 679.865 279.368 679.785 279.368C678.553 279.368 677.577 279.736 676.857 280.472C676.137 281.208 675.777 282.272 675.777 283.664V290H673.473ZM688.7 290.144C687.34 290.144 686.14 289.864 685.1 289.304C684.076 288.744 683.276 287.976 682.7 287C682.14 286.024 681.86 284.904 681.86 283.64C681.86 282.376 682.132 281.256 682.676 280.28C683.236 279.304 683.996 278.544 684.956 278C685.932 277.44 687.028 277.16 688.244 277.16C689.476 277.16 690.564 277.432 691.508 277.976C692.452 278.52 693.188 279.288 693.716 280.28C694.26 281.256 694.532 282.4 694.532 283.712C694.532 283.808 694.524 283.92 694.508 284.048C694.508 284.176 694.5 284.296 694.484 284.408H683.66V282.752H693.284L692.348 283.328C692.364 282.512 692.196 281.784 691.844 281.144C691.492 280.504 691.004 280.008 690.38 279.656C689.772 279.288 689.06 279.104 688.244 279.104C687.444 279.104 686.732 279.288 686.108 279.656C685.484 280.008 684.996 280.512 684.644 281.168C684.292 281.808 684.116 282.544 684.116 283.376V283.76C684.116 284.608 684.308 285.368 684.692 286.04C685.092 286.696 685.644 287.208 686.348 287.576C687.052 287.944 687.86 288.128 688.772 288.128C689.524 288.128 690.204 288 690.812 287.744C691.436 287.488 691.98 287.104 692.444 286.592L693.716 288.08C693.14 288.752 692.42 289.264 691.556 289.616C690.708 289.968 689.756 290.144 688.7 290.144ZM698.283 290.144C697.835 290.144 697.451 289.992 697.131 289.688C696.811 289.368 696.651 288.968 696.651 288.488C696.651 288.008 696.811 287.616 697.131 287.312C697.451 287.008 697.835 286.856 698.283 286.856C698.715 286.856 699.083 287.008 699.387 287.312C699.707 287.616 699.867 288.008 699.867 288.488C699.867 288.968 699.707 289.368 699.387 289.688C699.083 289.992 698.715 290.144 698.283 290.144ZM717.534 290.192C716.254 290.192 715.062 289.976 713.958 289.544C712.87 289.112 711.926 288.512 711.126 287.744C710.326 286.96 709.702 286.048 709.254 285.008C708.806 283.968 708.582 282.832 708.582 281.6C708.582 280.368 708.806 279.232 709.254 278.192C709.702 277.152 710.326 276.248 711.126 275.48C711.926 274.696 712.87 274.088 713.958 273.656C715.046 273.224 716.238 273.008 717.534 273.008C718.814 273.008 719.99 273.224 721.062 273.656C722.15 274.072 723.094 274.672 723.894 275.456C724.71 276.224 725.334 277.128 725.766 278.168C726.214 279.208 726.438 280.352 726.438 281.6C726.438 282.848 726.214 283.992 725.766 285.032C725.334 286.072 724.71 286.984 723.894 287.768C723.094 288.536 722.15 289.136 721.062 289.568C719.99 289.984 718.814 290.192 717.534 290.192ZM717.534 288.056C718.462 288.056 719.318 287.896 720.102 287.576C720.902 287.256 721.59 286.808 722.166 286.232C722.758 285.64 723.214 284.952 723.534 284.168C723.87 283.384 724.038 282.528 724.038 281.6C724.038 280.672 723.87 279.816 723.534 279.032C723.214 278.248 722.758 277.568 722.166 276.992C721.59 276.4 720.902 275.944 720.102 275.624C719.318 275.304 718.462 275.144 717.534 275.144C716.59 275.144 715.718 275.304 714.918 275.624C714.134 275.944 713.446 276.4 712.854 276.992C712.262 277.568 711.798 278.248 711.462 279.032C711.142 279.816 710.982 280.672 710.982 281.6C710.982 282.528 711.142 283.384 711.462 284.168C711.798 284.952 712.262 285.64 712.854 286.232C713.446 286.808 714.134 287.256 714.918 287.576C715.718 287.896 716.59 288.056 717.534 288.056ZM736.514 290.144C735.458 290.144 734.49 289.904 733.61 289.424C732.746 288.928 732.05 288.2 731.522 287.24C731.01 286.28 730.754 285.08 730.754 283.64C730.754 282.2 731.002 281 731.498 280.04C732.01 279.08 732.698 278.36 733.562 277.88C734.442 277.4 735.426 277.16 736.514 277.16C737.762 277.16 738.866 277.432 739.826 277.976C740.786 278.52 741.546 279.28 742.106 280.256C742.666 281.216 742.946 282.344 742.946 283.64C742.946 284.936 742.666 286.072 742.106 287.048C741.546 288.024 740.786 288.784 739.826 289.328C738.866 289.872 737.762 290.144 736.514 290.144ZM729.77 294.656V277.28H731.978V280.712L731.834 283.664L732.074 286.616V294.656H729.77ZM736.322 288.128C737.138 288.128 737.866 287.944 738.506 287.576C739.162 287.208 739.674 286.688 740.042 286.016C740.426 285.328 740.618 284.536 740.618 283.64C740.618 282.728 740.426 281.944 740.042 281.288C739.674 280.616 739.162 280.096 738.506 279.728C737.866 279.36 737.138 279.176 736.322 279.176C735.522 279.176 734.794 279.36 734.138 279.728C733.498 280.096 732.986 280.616 732.602 281.288C732.234 281.944 732.05 282.728 732.05 283.64C732.05 284.536 732.234 285.328 732.602 286.016C732.986 286.688 733.498 287.208 734.138 287.576C734.794 287.944 735.522 288.128 736.322 288.128ZM750.497 290.144C749.217 290.144 748.225 289.8 747.521 289.112C746.817 288.424 746.465 287.44 746.465 286.16V274.496H748.769V286.064C748.769 286.752 748.937 287.28 749.273 287.648C749.625 288.016 750.121 288.2 750.761 288.2C751.481 288.2 752.081 288 752.561 287.6L753.281 289.256C752.929 289.56 752.505 289.784 752.009 289.928C751.529 290.072 751.025 290.144 750.497 290.144ZM744.305 279.176V277.28H752.417V279.176H744.305ZM756.067 290V277.28H758.371V290H756.067ZM757.219 274.832C756.771 274.832 756.395 274.688 756.091 274.4C755.803 274.112 755.659 273.76 755.659 273.344C755.659 272.912 755.803 272.552 756.091 272.264C756.395 271.976 756.771 271.832 757.219 271.832C757.667 271.832 758.035 271.976 758.323 272.264C758.627 272.536 758.779 272.88 758.779 273.296C758.779 273.728 758.635 274.096 758.347 274.4C758.059 274.688 757.683 274.832 757.219 274.832ZM778.682 277.16C779.706 277.16 780.61 277.36 781.394 277.76C782.178 278.16 782.786 278.768 783.218 279.584C783.666 280.4 783.89 281.432 783.89 282.68V290H781.586V282.944C781.586 281.712 781.298 280.784 780.722 280.16C780.146 279.536 779.338 279.224 778.298 279.224C777.53 279.224 776.858 279.384 776.282 279.704C775.706 280.024 775.258 280.496 774.938 281.12C774.634 281.744 774.482 282.52 774.482 283.448V290H772.178V282.944C772.178 281.712 771.89 280.784 771.314 280.16C770.754 279.536 769.946 279.224 768.89 279.224C768.138 279.224 767.474 279.384 766.898 279.704C766.322 280.024 765.874 280.496 765.554 281.12C765.234 281.744 765.074 282.52 765.074 283.448V290H762.77V277.28H764.978V280.664L764.618 279.8C765.018 278.968 765.634 278.32 766.466 277.856C767.298 277.392 768.266 277.16 769.37 277.16C770.586 277.16 771.634 277.464 772.514 278.072C773.394 278.664 773.97 279.568 774.242 280.784L773.306 280.4C773.69 279.424 774.362 278.64 775.322 278.048C776.282 277.456 777.402 277.16 778.682 277.16ZM788.129 290V277.28H790.433V290H788.129ZM789.281 274.832C788.833 274.832 788.457 274.688 788.153 274.4C787.865 274.112 787.721 273.76 787.721 273.344C787.721 272.912 787.865 272.552 788.153 272.264C788.457 271.976 788.833 271.832 789.281 271.832C789.729 271.832 790.097 271.976 790.385 272.264C790.689 272.536 790.841 272.88 790.841 273.296C790.841 273.728 790.697 274.096 790.409 274.4C790.121 274.688 789.745 274.832 789.281 274.832ZM793.608 290V288.512L801.768 278.384L802.224 279.176H793.752V277.28H804.072V278.792L795.912 288.896L795.384 288.104H804.264V290H793.608ZM812.825 290.144C811.465 290.144 810.265 289.864 809.225 289.304C808.201 288.744 807.401 287.976 806.825 287C806.265 286.024 805.985 284.904 805.985 283.64C805.985 282.376 806.257 281.256 806.801 280.28C807.361 279.304 808.121 278.544 809.081 278C810.057 277.44 811.153 277.16 812.369 277.16C813.601 277.16 814.689 277.432 815.633 277.976C816.577 278.52 817.313 279.288 817.841 280.28C818.385 281.256 818.657 282.4 818.657 283.712C818.657 283.808 818.649 283.92 818.633 284.048C818.633 284.176 818.625 284.296 818.609 284.408H807.785V282.752H817.409L816.473 283.328C816.489 282.512 816.321 281.784 815.969 281.144C815.617 280.504 815.129 280.008 814.505 279.656C813.897 279.288 813.185 279.104 812.369 279.104C811.569 279.104 810.857 279.288 810.233 279.656C809.609 280.008 809.121 280.512 808.769 281.168C808.417 281.808 808.241 282.544 808.241 283.376V283.76C808.241 284.608 808.433 285.368 808.817 286.04C809.217 286.696 809.769 287.208 810.473 287.576C811.177 287.944 811.985 288.128 812.897 288.128C813.649 288.128 814.329 288 814.937 287.744C815.561 287.488 816.105 287.104 816.569 286.592L817.841 288.08C817.265 288.752 816.545 289.264 815.681 289.616C814.833 289.968 813.881 290.144 812.825 290.144ZM828.853 294.8C828.245 294.8 827.653 294.696 827.077 294.488C826.501 294.296 826.005 294.008 825.589 293.624L826.573 291.896C826.893 292.2 827.245 292.432 827.629 292.592C828.013 292.752 828.421 292.832 828.853 292.832C829.413 292.832 829.877 292.688 830.245 292.4C830.613 292.112 830.957 291.6 831.277 290.864L832.069 289.112L832.309 288.824L837.301 277.28H839.557L833.389 291.272C833.021 292.168 832.605 292.872 832.141 293.384C831.693 293.896 831.197 294.256 830.653 294.464C830.109 294.688 829.509 294.8 828.853 294.8ZM831.877 290.408L826.069 277.28H828.469L833.413 288.608L831.877 290.408ZM846.804 290.144C845.524 290.144 844.388 289.864 843.396 289.304C842.404 288.744 841.62 287.976 841.044 287C840.468 286.008 840.18 284.888 840.18 283.64C840.18 282.376 840.468 281.256 841.044 280.28C841.62 279.304 842.404 278.544 843.396 278C844.388 277.44 845.524 277.16 846.804 277.16C848.068 277.16 849.196 277.44 850.188 278C851.196 278.544 851.98 279.304 852.54 280.28C853.116 281.24 853.404 282.36 853.404 283.64C853.404 284.904 853.116 286.024 852.54 287C851.98 287.976 851.196 288.744 850.188 289.304C849.196 289.864 848.068 290.144 846.804 290.144ZM846.804 288.128C847.62 288.128 848.348 287.944 848.988 287.576C849.644 287.208 850.156 286.688 850.524 286.016C850.892 285.328 851.076 284.536 851.076 283.64C851.076 282.728 850.892 281.944 850.524 281.288C850.156 280.616 849.644 280.096 848.988 279.728C848.348 279.36 847.62 279.176 846.804 279.176C845.988 279.176 845.26 279.36 844.62 279.728C843.98 280.096 843.468 280.616 843.084 281.288C842.7 281.944 842.508 282.728 842.508 283.64C842.508 284.536 842.7 285.328 843.084 286.016C843.468 286.688 843.98 287.208 844.62 287.576C845.26 287.944 845.988 288.128 846.804 288.128ZM861.942 290.144C860.854 290.144 859.894 289.944 859.062 289.544C858.246 289.144 857.606 288.536 857.142 287.72C856.694 286.888 856.47 285.848 856.47 284.6V277.28H858.774V284.336C858.774 285.584 859.07 286.52 859.662 287.144C860.27 287.768 861.118 288.08 862.206 288.08C863.006 288.08 863.702 287.92 864.294 287.6C864.886 287.264 865.342 286.784 865.662 286.16C865.982 285.52 866.142 284.752 866.142 283.856V277.28H868.446V290H866.262V286.568L866.622 287.48C866.206 288.328 865.582 288.984 864.75 289.448C863.918 289.912 862.982 290.144 861.942 290.144ZM872.832 290V277.28H875.04V280.736L874.824 279.872C875.176 278.992 875.768 278.32 876.6 277.856C877.432 277.392 878.456 277.16 879.672 277.16V279.392C879.576 279.376 879.48 279.368 879.384 279.368C879.304 279.368 879.224 279.368 879.144 279.368C877.912 279.368 876.936 279.736 876.216 280.472C875.496 281.208 875.136 282.272 875.136 283.664V290H872.832ZM892.458 290L886.889 277.28H889.29L894.234 288.8H893.082L898.122 277.28H900.378L894.81 290H892.458ZM907.84 290.144C906.48 290.144 905.28 289.864 904.24 289.304C903.216 288.744 902.416 287.976 901.84 287C901.28 286.024 901 284.904 901 283.64C901 282.376 901.272 281.256 901.816 280.28C902.376 279.304 903.136 278.544 904.096 278C905.072 277.44 906.168 277.16 907.384 277.16C908.616 277.16 909.704 277.432 910.648 277.976C911.592 278.52 912.328 279.288 912.856 280.28C913.4 281.256 913.672 282.4 913.672 283.712C913.672 283.808 913.664 283.92 913.648 284.048C913.648 284.176 913.64 284.296 913.624 284.408H902.8V282.752H912.424L911.488 283.328C911.504 282.512 911.336 281.784 910.984 281.144C910.632 280.504 910.144 280.008 909.52 279.656C908.912 279.288 908.2 279.104 907.384 279.104C906.584 279.104 905.872 279.288 905.248 279.656C904.624 280.008 904.136 280.512 903.784 281.168C903.432 281.808 903.256 282.544 903.256 283.376V283.76C903.256 284.608 903.448 285.368 903.832 286.04C904.232 286.696 904.784 287.208 905.488 287.576C906.192 287.944 907 288.128 907.912 288.128C908.664 288.128 909.344 288 909.952 287.744C910.576 287.488 911.12 287.104 911.584 286.592L912.856 288.08C912.28 288.752 911.56 289.264 910.696 289.616C909.848 289.968 908.896 290.144 907.84 290.144ZM923.664 277.16C924.704 277.16 925.616 277.36 926.4 277.76C927.2 278.16 927.824 278.768 928.272 279.584C928.72 280.4 928.944 281.432 928.944 282.68V290H926.64V282.944C926.64 281.712 926.336 280.784 925.728 280.16C925.136 279.536 924.296 279.224 923.208 279.224C922.392 279.224 921.68 279.384 921.072 279.704C920.464 280.024 919.992 280.496 919.656 281.12C919.336 281.744 919.176 282.52 919.176 283.448V290H916.872V272.192H919.176V280.712L918.72 279.8C919.136 278.968 919.776 278.32 920.64 277.856C921.504 277.392 922.512 277.16 923.664 277.16ZM933.207 290V277.28H935.511V290H933.207ZM934.359 274.832C933.911 274.832 933.535 274.688 933.231 274.4C932.943 274.112 932.799 273.76 932.799 273.344C932.799 272.912 932.943 272.552 933.231 272.264C933.535 271.976 933.911 271.832 934.359 271.832C934.807 271.832 935.175 271.976 935.463 272.264C935.767 272.536 935.919 272.88 935.919 273.296C935.919 273.728 935.775 274.096 935.487 274.4C935.199 274.688 934.823 274.832 934.359 274.832ZM945.455 290.144C944.159 290.144 942.999 289.864 941.975 289.304C940.967 288.744 940.175 287.976 939.599 287C939.023 286.024 938.735 284.904 938.735 283.64C938.735 282.376 939.023 281.256 939.599 280.28C940.175 279.304 940.967 278.544 941.975 278C942.999 277.44 944.159 277.16 945.455 277.16C946.607 277.16 947.631 277.392 948.527 277.856C949.439 278.304 950.143 278.976 950.639 279.872L948.887 281C948.471 280.376 947.959 279.92 947.351 279.632C946.759 279.328 946.119 279.176 945.431 279.176C944.599 279.176 943.855 279.36 943.199 279.728C942.543 280.096 942.023 280.616 941.639 281.288C941.255 281.944 941.063 282.728 941.063 283.64C941.063 284.552 941.255 285.344 941.639 286.016C942.023 286.688 942.543 287.208 943.199 287.576C943.855 287.944 944.599 288.128 945.431 288.128C946.119 288.128 946.759 287.984 947.351 287.696C947.959 287.392 948.471 286.928 948.887 286.304L950.639 287.408C950.143 288.288 949.439 288.968 948.527 289.448C947.631 289.912 946.607 290.144 945.455 290.144ZM953.457 290V272.192H955.761V290H953.457ZM965.825 290.144C964.465 290.144 963.265 289.864 962.225 289.304C961.201 288.744 960.401 287.976 959.825 287C959.265 286.024 958.985 284.904 958.985 283.64C958.985 282.376 959.257 281.256 959.801 280.28C960.361 279.304 961.121 278.544 962.081 278C963.057 277.44 964.153 277.16 965.369 277.16C966.601 277.16 967.689 277.432 968.633 277.976C969.577 278.52 970.313 279.288 970.841 280.28C971.385 281.256 971.657 282.4 971.657 283.712C971.657 283.808 971.649 283.92 971.633 284.048C971.633 284.176 971.625 284.296 971.609 284.408H960.785V282.752H970.409L969.473 283.328C969.489 282.512 969.321 281.784 968.969 281.144C968.617 280.504 968.129 280.008 967.505 279.656C966.897 279.288 966.185 279.104 965.369 279.104C964.569 279.104 963.857 279.288 963.233 279.656C962.609 280.008 962.121 280.512 961.769 281.168C961.417 281.808 961.241 282.544 961.241 283.376V283.76C961.241 284.608 961.433 285.368 961.817 286.04C962.217 286.696 962.769 287.208 963.473 287.576C964.177 287.944 964.985 288.128 965.897 288.128C966.649 288.128 967.329 288 967.937 287.744C968.561 287.488 969.105 287.104 969.569 286.592L970.841 288.08C970.265 288.752 969.545 289.264 968.681 289.616C967.833 289.968 966.881 290.144 965.825 290.144ZM973.789 279.68L973.645 273.2H975.661L975.493 279.68H973.789ZM983.004 290.144C981.948 290.144 980.94 290 979.98 289.712C979.036 289.424 978.292 289.072 977.748 288.656L978.708 286.832C979.252 287.2 979.924 287.512 980.724 287.768C981.524 288.024 982.34 288.152 983.172 288.152C984.244 288.152 985.012 288 985.476 287.696C985.956 287.392 986.196 286.968 986.196 286.424C986.196 286.024 986.052 285.712 985.764 285.488C985.476 285.264 985.092 285.096 984.612 284.984C984.148 284.872 983.628 284.776 983.052 284.696C982.476 284.6 981.9 284.488 981.324 284.36C980.748 284.216 980.22 284.024 979.74 283.784C979.26 283.528 978.876 283.184 978.588 282.752C978.3 282.304 978.156 281.712 978.156 280.976C978.156 280.208 978.372 279.536 978.804 278.96C979.236 278.384 979.844 277.944 980.628 277.64C981.428 277.32 982.372 277.16 983.46 277.16C984.292 277.16 985.132 277.264 985.98 277.472C986.844 277.664 987.548 277.944 988.092 278.312L987.108 280.136C986.532 279.752 985.932 279.488 985.308 279.344C984.684 279.2 984.06 279.128 983.436 279.128C982.428 279.128 981.676 279.296 981.18 279.632C980.684 279.952 980.436 280.368 980.436 280.88C980.436 281.312 980.58 281.648 980.868 281.888C981.172 282.112 981.556 282.288 982.02 282.416C982.5 282.544 983.028 282.656 983.604 282.752C984.18 282.832 984.756 282.944 985.332 283.088C985.908 283.216 986.428 283.4 986.892 283.64C987.372 283.88 987.756 284.216 988.044 284.648C988.348 285.08 988.5 285.656 988.5 286.376C988.5 287.144 988.276 287.808 987.828 288.368C987.38 288.928 986.748 289.368 985.932 289.688C985.116 289.992 984.14 290.144 983.004 290.144ZM1004.57 290.144C1003.51 290.144 1002.54 289.904 1001.66 289.424C1000.8 288.928 1000.1 288.2 999.577 287.24C999.065 286.28 998.809 285.08 998.809 283.64C998.809 282.2 999.057 281 999.553 280.04C1000.06 279.08 1000.75 278.36 1001.62 277.88C1002.5 277.4 1003.48 277.16 1004.57 277.16C1005.82 277.16 1006.92 277.432 1007.88 277.976C1008.84 278.52 1009.6 279.28 1010.16 280.256C1010.72 281.216 1011 282.344 1011 283.64C1011 284.936 1010.72 286.072 1010.16 287.048C1009.6 288.024 1008.84 288.784 1007.88 289.328C1006.92 289.872 1005.82 290.144 1004.57 290.144ZM997.825 294.656V277.28H1000.03V280.712L999.889 283.664L1000.13 286.616V294.656H997.825ZM1004.38 288.128C1005.19 288.128 1005.92 287.944 1006.56 287.576C1007.22 287.208 1007.73 286.688 1008.1 286.016C1008.48 285.328 1008.67 284.536 1008.67 283.64C1008.67 282.728 1008.48 281.944 1008.1 281.288C1007.73 280.616 1007.22 280.096 1006.56 279.728C1005.92 279.36 1005.19 279.176 1004.38 279.176C1003.58 279.176 1002.85 279.36 1002.19 279.728C1001.55 280.096 1001.04 280.616 1000.66 281.288C1000.29 281.944 1000.1 282.728 1000.1 283.64C1000.1 284.536 1000.29 285.328 1000.66 286.016C1001.04 286.688 1001.55 287.208 1002.19 287.576C1002.85 287.944 1003.58 288.128 1004.38 288.128ZM1019.85 290.144C1018.49 290.144 1017.29 289.864 1016.25 289.304C1015.22 288.744 1014.42 287.976 1013.85 287C1013.29 286.024 1013.01 284.904 1013.01 283.64C1013.01 282.376 1013.28 281.256 1013.82 280.28C1014.38 279.304 1015.14 278.544 1016.1 278C1017.08 277.44 1018.18 277.16 1019.39 277.16C1020.62 277.16 1021.71 277.432 1022.66 277.976C1023.6 278.52 1024.34 279.288 1024.86 280.28C1025.41 281.256 1025.68 282.4 1025.68 283.712C1025.68 283.808 1025.67 283.92 1025.66 284.048C1025.66 284.176 1025.65 284.296 1025.63 284.408H1014.81V282.752H1024.43L1023.5 283.328C1023.51 282.512 1023.34 281.784 1022.99 281.144C1022.64 280.504 1022.15 280.008 1021.53 279.656C1020.92 279.288 1020.21 279.104 1019.39 279.104C1018.59 279.104 1017.88 279.288 1017.26 279.656C1016.63 280.008 1016.14 280.512 1015.79 281.168C1015.44 281.808 1015.26 282.544 1015.26 283.376V283.76C1015.26 284.608 1015.46 285.368 1015.84 286.04C1016.24 286.696 1016.79 287.208 1017.5 287.576C1018.2 287.944 1019.01 288.128 1019.92 288.128C1020.67 288.128 1021.35 288 1021.96 287.744C1022.58 287.488 1023.13 287.104 1023.59 286.592L1024.86 288.08C1024.29 288.752 1023.57 289.264 1022.7 289.616C1021.86 289.968 1020.9 290.144 1019.85 290.144ZM1028.88 290V277.28H1031.09V280.736L1030.87 279.872C1031.22 278.992 1031.82 278.32 1032.65 277.856C1033.48 277.392 1034.5 277.16 1035.72 277.16V279.392C1035.62 279.376 1035.53 279.368 1035.43 279.368C1035.35 279.368 1035.27 279.368 1035.19 279.368C1033.96 279.368 1032.98 279.736 1032.26 280.472C1031.54 281.208 1031.18 282.272 1031.18 283.664V290H1028.88ZM1039.06 290V276.152C1039.06 274.904 1039.42 273.912 1040.14 273.176C1040.88 272.424 1041.92 272.048 1043.26 272.048C1043.76 272.048 1044.23 272.112 1044.68 272.24C1045.14 272.352 1045.53 272.536 1045.85 272.792L1045.16 274.544C1044.92 274.352 1044.64 274.208 1044.34 274.112C1044.04 274 1043.72 273.944 1043.38 273.944C1042.71 273.944 1042.2 274.136 1041.84 274.52C1041.49 274.888 1041.32 275.44 1041.32 276.176V277.88L1041.36 278.936V290H1039.06ZM1036.9 279.176V277.28H1045.01V279.176H1036.9ZM1052.44 290.144C1051.16 290.144 1050.03 289.864 1049.04 289.304C1048.04 288.744 1047.26 287.976 1046.68 287C1046.11 286.008 1045.82 284.888 1045.82 283.64C1045.82 282.376 1046.11 281.256 1046.68 280.28C1047.26 279.304 1048.04 278.544 1049.04 278C1050.03 277.44 1051.16 277.16 1052.44 277.16C1053.71 277.16 1054.84 277.44 1055.83 278C1056.84 278.544 1057.62 279.304 1058.18 280.28C1058.76 281.24 1059.04 282.36 1059.04 283.64C1059.04 284.904 1058.76 286.024 1058.18 287C1057.62 287.976 1056.84 288.744 1055.83 289.304C1054.84 289.864 1053.71 290.144 1052.44 290.144ZM1052.44 288.128C1053.26 288.128 1053.99 287.944 1054.63 287.576C1055.28 287.208 1055.8 286.688 1056.16 286.016C1056.53 285.328 1056.72 284.536 1056.72 283.64C1056.72 282.728 1056.53 281.944 1056.16 281.288C1055.8 280.616 1055.28 280.096 1054.63 279.728C1053.99 279.36 1053.26 279.176 1052.44 279.176C1051.63 279.176 1050.9 279.36 1050.26 279.728C1049.62 280.096 1049.11 280.616 1048.72 281.288C1048.34 281.944 1048.15 282.728 1048.15 283.64C1048.15 284.536 1048.34 285.328 1048.72 286.016C1049.11 286.688 1049.62 287.208 1050.26 287.576C1050.9 287.944 1051.63 288.128 1052.44 288.128ZM1062.23 290V277.28H1064.44V280.736L1064.22 279.872C1064.57 278.992 1065.17 278.32 1066 277.856C1066.83 277.392 1067.85 277.16 1069.07 277.16V279.392C1068.97 279.376 1068.88 279.368 1068.78 279.368C1068.7 279.368 1068.62 279.368 1068.54 279.368C1067.31 279.368 1066.33 279.736 1065.61 280.472C1064.89 281.208 1064.53 282.272 1064.53 283.664V290H1062.23ZM1087.82 277.16C1088.85 277.16 1089.75 277.36 1090.53 277.76C1091.32 278.16 1091.93 278.768 1092.36 279.584C1092.81 280.4 1093.03 281.432 1093.03 282.68V290H1090.73V282.944C1090.73 281.712 1090.44 280.784 1089.86 280.16C1089.29 279.536 1088.48 279.224 1087.44 279.224C1086.67 279.224 1086 279.384 1085.42 279.704C1084.85 280.024 1084.4 280.496 1084.08 281.12C1083.77 281.744 1083.62 282.52 1083.62 283.448V290H1081.32V282.944C1081.32 281.712 1081.03 280.784 1080.45 280.16C1079.89 279.536 1079.09 279.224 1078.03 279.224C1077.28 279.224 1076.61 279.384 1076.04 279.704C1075.46 280.024 1075.01 280.496 1074.69 281.12C1074.37 281.744 1074.21 282.52 1074.21 283.448V290H1071.91V277.28H1074.12V280.664L1073.76 279.8C1074.16 278.968 1074.77 278.32 1075.61 277.856C1076.44 277.392 1077.41 277.16 1078.51 277.16C1079.73 277.16 1080.77 277.464 1081.65 278.072C1082.53 278.664 1083.11 279.568 1083.38 280.784L1082.45 280.4C1082.83 279.424 1083.5 278.64 1084.46 278.048C1085.42 277.456 1086.54 277.16 1087.82 277.16ZM1105.17 290V287.312L1105.05 286.808V282.224C1105.05 281.248 1104.76 280.496 1104.18 279.968C1103.62 279.424 1102.77 279.152 1101.64 279.152C1100.89 279.152 1100.15 279.28 1099.43 279.536C1098.71 279.776 1098.1 280.104 1097.61 280.52L1096.65 278.792C1097.3 278.264 1098.09 277.864 1099 277.592C1099.93 277.304 1100.89 277.16 1101.9 277.16C1103.65 277.16 1104.99 277.584 1105.93 278.432C1106.88 279.28 1107.35 280.576 1107.35 282.32V290H1105.17ZM1100.99 290.144C1100.05 290.144 1099.21 289.984 1098.49 289.664C1097.79 289.344 1097.25 288.904 1096.86 288.344C1096.48 287.768 1096.29 287.12 1096.29 286.4C1096.29 285.712 1096.45 285.088 1096.77 284.528C1097.1 283.968 1097.64 283.52 1098.37 283.184C1099.13 282.848 1100.13 282.68 1101.4 282.68H1105.43V284.336H1101.49C1100.34 284.336 1099.57 284.528 1099.17 284.912C1098.77 285.296 1098.57 285.76 1098.57 286.304C1098.57 286.928 1098.81 287.432 1099.31 287.816C1099.81 288.184 1100.49 288.368 1101.37 288.368C1102.24 288.368 1102.99 288.176 1103.63 287.792C1104.29 287.408 1104.76 286.848 1105.05 286.112L1105.5 287.696C1105.2 288.448 1104.66 289.048 1103.89 289.496C1103.13 289.928 1102.16 290.144 1100.99 290.144ZM1118.41 277.16C1119.45 277.16 1120.36 277.36 1121.14 277.76C1121.94 278.16 1122.57 278.768 1123.01 279.584C1123.46 280.4 1123.69 281.432 1123.69 282.68V290H1121.38V282.944C1121.38 281.712 1121.08 280.784 1120.47 280.16C1119.88 279.536 1119.04 279.224 1117.95 279.224C1117.13 279.224 1116.42 279.384 1115.81 279.704C1115.21 280.024 1114.73 280.496 1114.4 281.12C1114.08 281.744 1113.92 282.52 1113.92 283.448V290H1111.61V277.28H1113.82V280.712L1113.46 279.8C1113.88 278.968 1114.52 278.32 1115.38 277.856C1116.25 277.392 1117.25 277.16 1118.41 277.16ZM1133.49 290.144C1132.2 290.144 1131.04 289.864 1130.01 289.304C1129.01 288.744 1128.21 287.976 1127.64 287C1127.06 286.024 1126.77 284.904 1126.77 283.64C1126.77 282.376 1127.06 281.256 1127.64 280.28C1128.21 279.304 1129.01 278.544 1130.01 278C1131.04 277.44 1132.2 277.16 1133.49 277.16C1134.65 277.16 1135.67 277.392 1136.57 277.856C1137.48 278.304 1138.18 278.976 1138.68 279.872L1136.93 281C1136.51 280.376 1136 279.92 1135.39 279.632C1134.8 279.328 1134.16 279.176 1133.47 279.176C1132.64 279.176 1131.89 279.36 1131.24 279.728C1130.58 280.096 1130.06 280.616 1129.68 281.288C1129.29 281.944 1129.1 282.728 1129.1 283.64C1129.1 284.552 1129.29 285.344 1129.68 286.016C1130.06 286.688 1130.58 287.208 1131.24 287.576C1131.89 287.944 1132.64 288.128 1133.47 288.128C1134.16 288.128 1134.8 287.984 1135.39 287.696C1136 287.392 1136.51 286.928 1136.93 286.304L1138.68 287.408C1138.18 288.288 1137.48 288.968 1136.57 289.448C1135.67 289.912 1134.65 290.144 1133.49 290.144ZM1147.14 290.144C1145.78 290.144 1144.58 289.864 1143.54 289.304C1142.51 288.744 1141.71 287.976 1141.14 287C1140.58 286.024 1140.3 284.904 1140.3 283.64C1140.3 282.376 1140.57 281.256 1141.11 280.28C1141.67 279.304 1142.43 278.544 1143.39 278C1144.37 277.44 1145.47 277.16 1146.68 277.16C1147.91 277.16 1149 277.432 1149.95 277.976C1150.89 278.52 1151.63 279.288 1152.15 280.28C1152.7 281.256 1152.97 282.4 1152.97 283.712C1152.97 283.808 1152.96 283.92 1152.95 284.048C1152.95 284.176 1152.94 284.296 1152.92 284.408H1142.1V282.752H1151.72L1150.79 283.328C1150.8 282.512 1150.63 281.784 1150.28 281.144C1149.93 280.504 1149.44 280.008 1148.82 279.656C1148.21 279.288 1147.5 279.104 1146.68 279.104C1145.88 279.104 1145.17 279.288 1144.55 279.656C1143.92 280.008 1143.43 280.512 1143.08 281.168C1142.73 281.808 1142.55 282.544 1142.55 283.376V283.76C1142.55 284.608 1142.75 285.368 1143.13 286.04C1143.53 286.696 1144.08 287.208 1144.79 287.576C1145.49 287.944 1146.3 288.128 1147.21 288.128C1147.96 288.128 1148.64 288 1149.25 287.744C1149.87 287.488 1150.42 287.104 1150.88 286.592L1152.15 288.08C1151.58 288.752 1150.86 289.264 1149.99 289.616C1149.15 289.968 1148.19 290.144 1147.14 290.144ZM1156.29 284.696L1155.86 273.2H1158.57L1158.11 284.696H1156.29ZM1157.22 290.144C1156.78 290.144 1156.4 289.992 1156.1 289.688C1155.79 289.384 1155.64 289.024 1155.64 288.608C1155.64 288.16 1155.79 287.792 1156.1 287.504C1156.4 287.216 1156.78 287.072 1157.22 287.072C1157.67 287.072 1158.04 287.216 1158.33 287.504C1158.62 287.792 1158.76 288.16 1158.76 288.608C1158.76 289.024 1158.62 289.384 1158.33 289.688C1158.04 289.992 1157.67 290.144 1157.22 290.144Z" fill="#EEE2DE"/>
</svg>
